<svg width="61" height="63" viewBox="0 0 61 63" fill="none" xmlns="http://www.w3.org/2000/svg">
<path d="M30.2408 47.9697C26.5801 43.5162 24.4278 39.6124 23.7142 36.2726C20.4436 23.8977 40.0467 23.8977 36.7761 36.2726C35.9857 39.6828 33.8334 43.5851 30.2495 47.9697H30.2408ZM50.2776 58.2677C44.1773 60.8425 38.1424 56.7377 32.9747 51.1704C48.044 32.8794 39.6624 23.0455 30.2408 23.0455C22.2754 23.0455 17.8895 29.5859 19.6126 37.1782C20.6177 41.2831 23.2718 45.9518 27.5069 51.1704C22.7889 56.2399 18.7249 58.5798 15.157 58.8934C7.90524 59.9383 2.23287 53.1194 4.81597 46.084C7.00601 40.5771 21.0194 13.5745 21.6213 12.1148C23.9056 7.88621 25.3284 4.04295 30.2336 4.04295C34.924 4.04295 36.5281 7.69074 38.9894 12.4621C44.2107 22.393 51.9484 37.4201 55.6453 46.084C57.5555 50.7344 55.4466 56.1091 50.2776 58.2677ZM57.0943 39.1259C38.402 0.552655 37.3664 0 30.2408 0C23.6388 0 20.8323 4.45357 17.962 10.236C2.565 40.092 1.07258 44.3234 0.943501 44.6918C-2.71431 54.4413 4.82177 62.9997 13.9431 62.9997C17.0918 62.9997 22.7337 62.1475 30.2408 54.2247C38.7515 63.1937 44.9272 62.9997 46.5385 62.9997C55.6599 63.0067 63.1959 54.4413 59.5352 44.6918C59.5381 44.1448 57.0943 39.2215 57.0943 39.1259Z" fill="white"/>
</svg>
