<svg width="3" height="7" viewBox="0 0 5 16" fill="none" xmlns="http://www.w3.org/2000/svg">
<path fill-rule="evenodd" clip-rule="evenodd" d="M2.50403 7.75C2.50403 7.61193 2.38046 7.5 2.22803 7.5C2.0756 7.5 1.95203 7.61193 1.95203 7.75C1.95203 7.88807 2.0756 8 2.22803 8C2.38046 8 2.50403 7.88807 2.50403 7.75ZM2.22803 6C3.29505 6 4.16003 6.7835 4.16003 7.75C4.16003 8.7165 3.29505 9.5 2.22803 9.5C1.16102 9.5 0.296034 8.7165 0.296034 7.75C0.296034 6.7835 1.16102 6 2.22803 6Z" fill="#FAFAFA"/>
<path fill-rule="evenodd" clip-rule="evenodd" d="M2.50403 1.75C2.50403 1.61193 2.38046 1.5 2.22803 1.5C2.0756 1.5 1.95203 1.61193 1.95203 1.75C1.95203 1.88807 2.0756 2 2.22803 2C2.38046 2 2.50403 1.88807 2.50403 1.75ZM2.22803 -7.64949e-08C3.29505 -3.42479e-08 4.16003 0.783502 4.16003 1.75C4.16003 2.7165 3.29505 3.5 2.22803 3.5C1.16102 3.5 0.296034 2.7165 0.296034 1.75C0.296034 0.783502 1.16102 -1.18742e-07 2.22803 -7.64949e-08Z" fill="#FAFAFA"/>
<path fill-rule="evenodd" clip-rule="evenodd" d="M2.50403 13.75C2.50403 13.6119 2.38046 13.5 2.22803 13.5C2.0756 13.5 1.95203 13.6119 1.95203 13.75C1.95203 13.8881 2.0756 14 2.22803 14C2.38046 14 2.50403 13.8881 2.50403 13.75ZM2.22803 12C3.29505 12 4.16003 12.7835 4.16003 13.75C4.16003 14.7165 3.29505 15.5 2.22803 15.5C1.16102 15.5 0.296034 14.7165 0.296034 13.75C0.296034 12.7835 1.16102 12 2.22803 12Z" fill="#FAFAFA"/>
</svg>
